<mxfile host="app.diagrams.net" modified="2021-01-12T08:20:00.109Z" agent="5.0 (Windows NT 10.0; Win64; x64) AppleWebKit/537.36 (KHTML, like Gecko) Chrome/87.0.4280.141 Safari/537.36 Edg/87.0.664.75" etag="b-fRYJDiojllUFqjVvED" version="14.1.9" type="github">
  <diagram name="Page-1" id="c7558073-3199-34d8-9f00-42111426c3f3">
    <mxGraphModel dx="1422" dy="772" grid="1" gridSize="10" guides="1" tooltips="1" connect="1" arrows="1" fold="1" page="1" pageScale="1" pageWidth="826" pageHeight="1169" background="#ffffff" math="0" shadow="0">
      <root>
        <mxCell id="0" />
        <mxCell id="1" parent="0" />
        <mxCell id="K6Mv9CJm5seSlj3ZoP2R-96" value="MySQL" style="shape=cylinder3;whiteSpace=wrap;html=1;boundedLbl=1;backgroundOutline=1;size=15;direction=east;" vertex="1" parent="1">
          <mxGeometry x="221.5" y="760" width="60" height="80" as="geometry" />
        </mxCell>
        <mxCell id="K6Mv9CJm5seSlj3ZoP2R-98" value="Query-Service" style="whiteSpace=wrap;align=center;verticalAlign=middle;fontStyle=1;strokeWidth=3;fillColor=#FFFFCC;direction=east;" vertex="1" parent="1">
          <mxGeometry x="267.4999999999999" y="500" width="90" height="60" as="geometry" />
        </mxCell>
        <mxCell id="K6Mv9CJm5seSlj3ZoP2R-99" value="DB Strategy" style="shape=process;whiteSpace=wrap;align=center;verticalAlign=middle;size=0.0475;fontStyle=1;strokeWidth=3;fillColor=#FFCCCC;direction=east;" vertex="1" parent="1">
          <mxGeometry x="190" y="640" width="245" height="50" as="geometry" />
        </mxCell>
        <mxCell id="K6Mv9CJm5seSlj3ZoP2R-100" value="MongoDB" style="shape=cylinder3;whiteSpace=wrap;html=1;boundedLbl=1;backgroundOutline=1;size=15;direction=east;" vertex="1" parent="1">
          <mxGeometry x="342.5" y="760" width="60" height="80" as="geometry" />
        </mxCell>
        <mxCell id="K6Mv9CJm5seSlj3ZoP2R-102" value="" style="edgeStyle=elbowEdgeStyle;elbow=horizontal;strokeColor=#990000;strokeWidth=2;exitX=0.5;exitY=1;exitDx=0;exitDy=0;" edge="1" parent="1" source="K6Mv9CJm5seSlj3ZoP2R-98" target="K6Mv9CJm5seSlj3ZoP2R-99">
          <mxGeometry width="100" height="100" relative="1" as="geometry">
            <mxPoint x="563" y="507.5" as="sourcePoint" />
            <mxPoint x="371.5" y="580" as="targetPoint" />
            <Array as="points">
              <mxPoint x="311.5" y="580" />
            </Array>
          </mxGeometry>
        </mxCell>
        <mxCell id="K6Mv9CJm5seSlj3ZoP2R-103" value="" style="edgeStyle=elbowEdgeStyle;elbow=horizontal;exitX=0.25;exitY=1;strokeColor=#990000;strokeWidth=2;exitDx=0;exitDy=0;entryX=0.5;entryY=0;entryDx=0;entryDy=0;entryPerimeter=0;" edge="1" parent="1" source="K6Mv9CJm5seSlj3ZoP2R-99" target="K6Mv9CJm5seSlj3ZoP2R-96">
          <mxGeometry width="100" height="100" relative="1" as="geometry">
            <mxPoint x="322.5" y="560" as="sourcePoint" />
            <mxPoint x="321.5" y="650" as="targetPoint" />
            <Array as="points">
              <mxPoint x="251.5" y="710" />
            </Array>
          </mxGeometry>
        </mxCell>
        <mxCell id="K6Mv9CJm5seSlj3ZoP2R-104" value="" style="edgeStyle=elbowEdgeStyle;elbow=horizontal;exitX=0.25;exitY=1;strokeColor=#990000;strokeWidth=2;exitDx=0;exitDy=0;entryX=0.5;entryY=0;entryDx=0;entryDy=0;entryPerimeter=0;" edge="1" parent="1">
          <mxGeometry width="100" height="100" relative="1" as="geometry">
            <mxPoint x="372.5" y="690" as="sourcePoint" />
            <mxPoint x="372.75" y="760" as="targetPoint" />
            <Array as="points">
              <mxPoint x="372.75" y="710" />
            </Array>
          </mxGeometry>
        </mxCell>
        <mxCell id="K6Mv9CJm5seSlj3ZoP2R-106" value="Process-Service" style="whiteSpace=wrap;align=center;verticalAlign=middle;fontStyle=1;strokeWidth=3;fillColor=#FFFFCC;direction=east;" vertex="1" parent="1">
          <mxGeometry x="258" y="950" width="109" height="55" as="geometry" />
        </mxCell>
        <mxCell id="K6Mv9CJm5seSlj3ZoP2R-109" value="" style="endArrow=classic;html=1;entryX=0.5;entryY=1;entryDx=0;entryDy=0;exitX=0.5;exitY=0;exitDx=0;exitDy=0;entryPerimeter=0;" edge="1" parent="1" source="K6Mv9CJm5seSlj3ZoP2R-106" target="K6Mv9CJm5seSlj3ZoP2R-96">
          <mxGeometry width="50" height="50" relative="1" as="geometry">
            <mxPoint x="491.5" y="880" as="sourcePoint" />
            <mxPoint x="541.5" y="830" as="targetPoint" />
          </mxGeometry>
        </mxCell>
        <mxCell id="K6Mv9CJm5seSlj3ZoP2R-111" value="" style="endArrow=classic;html=1;entryX=0.5;entryY=1;entryDx=0;entryDy=0;exitX=0.5;exitY=0;exitDx=0;exitDy=0;entryPerimeter=0;" edge="1" parent="1" source="K6Mv9CJm5seSlj3ZoP2R-106" target="K6Mv9CJm5seSlj3ZoP2R-100">
          <mxGeometry width="50" height="50" relative="1" as="geometry">
            <mxPoint x="421.5" y="950" as="sourcePoint" />
            <mxPoint x="471.5" y="900" as="targetPoint" />
          </mxGeometry>
        </mxCell>
      </root>
    </mxGraphModel>
  </diagram>
</mxfile>
